<?xml version="1.0" encoding="UTF-8" standalone="no"?>
<!-- Created with Inkscape (http://www.inkscape.org/) -->

<svg
   xmlns:serif="http://www.serif.com/"
   xmlns:dc="http://purl.org/dc/elements/1.1/"
   xmlns:cc="http://creativecommons.org/ns#"
   xmlns:rdf="http://www.w3.org/1999/02/22-rdf-syntax-ns#"
   xmlns:svg="http://www.w3.org/2000/svg"
   xmlns="http://www.w3.org/2000/svg"
   xmlns:sodipodi="http://sodipodi.sourceforge.net/DTD/sodipodi-0.dtd"
   xmlns:inkscape="http://www.inkscape.org/namespaces/inkscape"
   width="286.23163"
   height="79.737061"
   viewBox="0 0 75.732117 21.097098"
   version="1.1"
   id="svg8"
   inkscape:version="0.92.3 (2405546, 2018-03-11)"
   sodipodi:docname="spirit.svg">
  <defs
     id="defs2" />
  <sodipodi:namedview
     id="base"
     pagecolor="#00ffff"
     bordercolor="#666666"
     borderopacity="1.0"
     inkscape:pageopacity="0"
     inkscape:pageshadow="2"
     inkscape:zoom="3.959798"
     inkscape:cx="132.00376"
     inkscape:cy="37.772239"
     inkscape:document-units="px"
     inkscape:current-layer="layer1"
     showgrid="false"
     units="px"
     fit-margin-top="0.5"
     fit-margin-left="0.5"
     fit-margin-right="0.5"
     fit-margin-bottom="0.5"
     inkscape:window-width="1920"
     inkscape:window-height="1001"
     inkscape:window-x="-9"
     inkscape:window-y="-9"
     inkscape:window-maximized="1" />
  <metadata
     id="metadata5">
    <rdf:RDF>
      <cc:Work
         rdf:about="">
        <dc:format>image/svg+xml</dc:format>
        <dc:type
           rdf:resource="http://purl.org/dc/dcmitype/StillImage" />
        <dc:title></dc:title>
      </cc:Work>
    </rdf:RDF>
  </metadata>
  <g
     inkscape:label="Layer 1"
     inkscape:groupmode="layer"
     id="layer1"
     transform="translate(-67.967274,-64.201443)">
    <g
       style="clip-rule:evenodd;fill-rule:evenodd;stroke-linejoin:round;stroke-miterlimit:1.41420996"
       id="g83"
       transform="matrix(0.26458333,0,0,0.26458333,68.099555,64.333713)">
      <g
         id="g51"
         transform="matrix(0.24,0,0,0.24,-35.9996,-104.631)">
        <g
   transform="scale(4.16667)"
   serif:id="Layer 1"
   id="Layer-1">
            <g
   id="g12"
   transform="translate(272.885,153.166)">
                <path
   id="path10"
   style="fill:#231f20;fill-rule:nonzero"
   d="m 0,-32.41 h 9.425 l 3.099,-14.589 h 17.991 l -3.109,14.589 h 11.886 l -2.528,11.871 H 24.885 l -3.936,18.502 c -0.88,4.158 0.013,4.744 4.852,4.744 2.2,0 4.007,-0.082 6.404,-0.165 L 29.821,13.741 C 26.064,14.247 21.238,14.589 15.975,14.589 4.266,14.589 0.04,11.71 2.152,1.779 L 6.904,-20.539 H -2.52 Z"
   inkscape:connector-curvature="0" />

            </g>

            <g
   id="g16"
   transform="translate(248.461,166.742)">
                <path
   id="path14"
   style="fill:#231f20;fill-rule:nonzero"
   d="M 0,-45.986 H 17.985 L 8.214,0 H -9.771 Z"
   inkscape:connector-curvature="0" />

            </g>

            <g
   id="g20"
   transform="translate(251.886,115.492)">
                <path
   id="path18"
   style="fill:#231f20;fill-rule:nonzero"
   d="M 0,-10.861 H 17.987 L 15.676,0 H -2.31 Z"
   inkscape:connector-curvature="0" />

            </g>

            <g
   id="g24"
   transform="matrix(-0.20794,0.978142,0.978142,0.20794,227.971,144.752)">
                <path
   id="path22"
   style="fill:#231f20;fill-rule:nonzero"
   d="M -17.824,-31.553 H 29.19 l -3.639,17.118 -47.015,0.002 z"
   inkscape:connector-curvature="0" />

            </g>

            <g
   id="g28"
   transform="translate(239.017,143.886)">
                <path
   id="path26"
   style="fill:#231f20;fill-rule:nonzero"
   d="m 0,-25.174 c -8.031,0 -20.814,7.912 -24.184,22 L -25.049,0 h 0.302 c 2.554,-6.114 8.955,-9.387 17.578,-9.387 2.323,0 4.965,0.318 7.09,0.796 L 3.416,-25.012 C 2.272,-25.114 1.078,-25.174 0,-25.174"
   inkscape:connector-curvature="0" />

            </g>

            <g
   id="g32"
   transform="translate(175.427,166.742)">
                <path
   id="path30"
   style="fill:#231f20;fill-rule:nonzero"
   d="M 0,-45.986 H 17.982 L 8.21,0 H -9.775 Z"
   inkscape:connector-curvature="0" />

            </g>

            <g
   id="g36"
   transform="translate(178.848,115.492)">
                <path
   id="path34"
   style="fill:#231f20;fill-rule:nonzero"
   d="M 0,-10.861 H 17.988 L 15.683,0 H -2.306 Z"
   inkscape:connector-curvature="0" />

            </g>

            <g
   id="g40"
   transform="translate(130.968,147.398)">
                <path
   id="path38"
   style="fill:#231f20;fill-rule:nonzero"
   d="m 0,8.139 c 8.236,0 13.597,-4.072 15.215,-11.705 1.624,-7.645 -2.006,-11.709 -10.232,-11.709 -8.401,0 -13.788,4.576 -15.3,11.709 C -11.833,3.56 -8.398,8.139 0,8.139 m -23.403,-34.781 h 17.476 l -1.294,6.106 h 0.168 c 4.812,-4.667 11.734,-7.295 19.032,-7.295 16.289,0 24.98,8.987 21.59,24.941 -2.833,13.322 -14.97,24.089 -31.848,24.089 -7.975,0 -13.52,-2.628 -15.859,-6.018 h -0.167 L -18.73,35.97 h -17.982 z"
   inkscape:connector-curvature="0" />

            </g>

            <g
   id="g44"
   transform="translate(57.1279,135.083)">
                <path
   id="path42"
   style="fill:#231f20;fill-rule:nonzero"
   d="m 0,17.32 c -0.103,1.694 0.287,3.052 1.715,3.908 1.416,0.933 3.768,1.433 7.671,1.433 3.986,0 8.392,-0.762 9.096,-4.07 0.522,-2.459 -1.118,-3.142 -5.419,-3.649 L -2.564,12.991 C -12.808,11.717 -17.361,7.986 -15.697,0.177 c 2.643,-12.468 14.167,-16.37 31.389,-16.37 12.219,0 27.189,2.201 25.432,15.267 H 20.936 c 0.243,-1.951 -0.762,-3.22 -2.398,-3.902 -1.62,-0.757 -3.938,-1.019 -6.233,-1.019 -5.175,0 -8.479,1.189 -9.149,4.329 -0.305,1.444 0.613,2.713 5.085,3.225 L 23.408,3.402 C 35.504,4.761 40.8,8.578 38.892,17.57 36.582,28.428 25.152,33.513 6.064,33.513 c -12.731,0 -29.471,-2.28 -26.935,-16.193 z"
   inkscape:connector-curvature="0" />

            </g>

            <g
   id="g48"
   transform="translate(317.526,124.509)">
                <path
   id="path46"
   style="fill:#231f20;fill-rule:nonzero"
   d="m 0,-0.132 c 0.213,0 0.383,-0.05 0.509,-0.15 0.124,-0.1 0.187,-0.239 0.187,-0.414 0,-0.163 -0.053,-0.298 -0.16,-0.404 C 0.43,-1.207 0.258,-1.26 0.02,-1.26 h -0.452 v 1.128 z m -1.372,-1.843 h 1.56 c 0.414,0 0.768,0.094 1.063,0.282 0.294,0.188 0.442,0.502 0.442,0.94 0,0.214 -0.059,0.414 -0.178,0.602 C 1.395,0.037 1.223,0.181 0.997,0.282 L 1.824,1.768 H 0.828 L 0.207,0.545 h -0.639 v 1.223 h -0.94 z M 0.075,2.877 C 0.464,2.877 0.828,2.806 1.166,2.661 1.505,2.517 1.797,2.316 2.041,2.059 2.285,1.802 2.477,1.494 2.614,1.138 2.752,0.78 2.821,0.382 2.821,-0.057 2.821,-0.496 2.752,-0.897 2.614,-1.26 2.477,-1.624 2.285,-1.937 2.041,-2.2 1.797,-2.464 1.505,-2.668 1.166,-2.812 0.828,-2.956 0.464,-3.028 0.075,-3.028 c -0.401,0 -0.767,0.072 -1.099,0.216 -0.333,0.144 -0.622,0.348 -0.866,0.612 -0.244,0.263 -0.435,0.576 -0.573,0.94 -0.139,0.363 -0.207,0.764 -0.207,1.203 0,0.439 0.068,0.837 0.207,1.195 0.138,0.356 0.329,0.664 0.573,0.921 0.244,0.257 0.533,0.458 0.866,0.602 0.332,0.145 0.698,0.216 1.099,0.216 m 0,0.809 c -0.501,0 -0.971,-0.091 -1.41,-0.273 C -1.773,3.231 -2.159,2.974 -2.491,2.642 -2.824,2.31 -3.084,1.915 -3.271,1.457 -3.46,1 -3.554,0.495 -3.554,-0.057 c 0,-0.551 0.094,-1.059 0.283,-1.523 0.187,-0.464 0.447,-0.862 0.78,-1.194 0.332,-0.333 0.718,-0.59 1.156,-0.772 0.439,-0.181 0.909,-0.272 1.41,-0.272 0.502,0 0.972,0.091 1.411,0.272 0.439,0.182 0.825,0.439 1.157,0.772 0.332,0.332 0.592,0.73 0.78,1.194 0.188,0.464 0.282,0.972 0.282,1.523 C 3.705,0.495 3.611,1 3.423,1.457 3.235,1.915 2.975,2.31 2.643,2.642 2.311,2.974 1.925,3.231 1.486,3.413 1.047,3.595 0.577,3.686 0.075,3.686"
   inkscape:connector-curvature="0" />

            </g>

        </g>

    </g>
    </g>
  </g>
</svg>
